<svg width="1440" height="326" viewBox="0 0 1440 326" fill="none" xmlns="http://www.w3.org/2000/svg">
<g clip-path="url(#clip0_211_1095)">
<path d="M1048.57 82.3749L1042.88 82.1714L1042.76 91.6423L1048.45 91.8458L1048.57 82.3749Z" fill="#177DFF"/>
<path d="M1077.04 147.919L1076.59 141.452L1067.13 140.305L1067.58 146.772L1077.04 147.919Z" fill="#4DD67B"/>
<path d="M1382.52 271.437L1391.74 267.926L1389.27 257.899L1380.06 261.41L1382.52 271.437Z" fill="#177DFF"/>
<path d="M105.313 338.81L110.61 334.315L96.6159 320.746L91.3181 325.24L105.313 338.81Z" fill="#F4DC73"/>
<path d="M315.904 99.6089L319.21 92.437L305.591 85.7591L302.285 92.931L315.904 99.6089Z" fill="#F4DC73"/>
<path d="M1195.79 215.239L1194.3 210.28L1185.43 212.406L1186.92 217.365L1195.79 215.239Z" fill="#F4DC73"/>
<path d="M1256.84 224.167L1259.59 217.77L1248.97 210.809L1246.22 217.207L1256.84 224.167Z" fill="#F4DC73"/>
<path d="M313.525 49.753L309.055 46.4365L303.173 54.1331L307.643 57.4495L313.525 49.753Z" fill="#177DFF"/>
<path d="M675.417 113.437L666.854 110.324L662.264 132.628L670.827 135.741L675.417 113.437Z" fill="#177DFF"/>
<path d="M1168.81 164.553L1161.63 163.672L1160.91 177.302L1168.09 178.183L1168.81 164.553Z" fill="#177DFF"/>
<path d="M761.104 99.5035L766.15 97.3525L764.738 90.763L759.692 92.9139L761.104 99.5035Z" fill="#177DFF"/>
<path d="M1269.78 207.824L1276.3 204.781L1273.26 198.256L1266.74 201.299L1269.78 207.824Z" fill="#4DD67B"/>
<path d="M1372.24 239.404L1380.98 238.35L1381.38 226.909L1372.64 227.963L1372.24 239.404Z" fill="#4DD67B"/>
<path d="M35.8191 230.132L41.7382 226.501L35.6619 217.704L29.7428 221.335L35.8191 230.132Z" fill="#4DD67B"/>
<path d="M46.4961 57.2743L51.4698 54.2021L40.4442 39.4369L35.4705 42.509L46.4961 57.2743Z" fill="#D64D5B"/>
<path d="M1204.41 264.172L1200.61 256.105L1181.77 263.588L1185.57 271.654L1204.41 264.172Z" fill="#D64D5B"/>
<path d="M851.853 101.738L853.654 94.3428L833.822 87.117L832.021 94.5121L851.853 101.738Z" fill="#4DD67B"/>
<path d="M821.759 290.352L826.941 284.087L812.846 272.518L807.664 278.783L821.759 290.352Z" fill="#177DFF"/>
<path d="M1276.93 277.565L1283.36 275.549L1275.49 258.682L1269.06 260.698L1276.93 277.565Z" fill="#4DD67B"/>
<path d="M1288.46 320.027L1287.09 313.54L1279.15 313.401L1280.52 319.889L1288.46 320.027Z" fill="#4DD67B"/>
<path d="M407.223 321.596L412.194 318.892L409.935 312.091L404.963 314.795L407.223 321.596Z" fill="#F4DC73"/>
<path d="M292.077 200.287L291.923 195.082L279.312 192.962L279.466 198.167L292.077 200.287Z" fill="#F4DC73"/>
<path d="M1342.85 280.018L1341.81 274.213L1329.94 275.728L1330.98 281.533L1342.85 280.018Z" fill="#177DFF"/>
<path d="M119.537 202.44L119.077 193.001L103.411 193.839L103.87 203.278L119.537 202.44Z" fill="#F4DC73"/>
<path d="M744.714 288.844L747.18 280.906L738.199 279.754L735.733 287.693L744.714 288.844Z" fill="#4DD67B"/>
<path d="M1006.68 236.055L1013.53 233.589L1007.08 213.942L1000.24 216.408L1006.68 236.055Z" fill="#D64D5B"/>
<path d="M306.136 211.203L312.089 206.325L302.852 193.865L296.899 198.743L306.136 211.203Z" fill="#4DD67B"/>
<path d="M1023.79 301.106L1018 293.293L1004.1 298.181L1009.89 305.995L1023.79 301.106Z" fill="#4DD67B"/>
<path d="M597.027 65.8573L592.76 57.7305L582.068 62.1498L586.335 70.2766L597.027 65.8573Z" fill="#4DD67B"/>
<path d="M818.795 295.479L813.67 293.113L811.166 303.286L816.291 305.652L818.795 295.479Z" fill="#D64D5B"/>
<path d="M939.562 185.375L934.593 184.241L933.341 191.257L938.31 192.391L939.562 185.375Z" fill="#177DFF"/>
<path d="M566.667 263.216L561.692 253.801L551.046 258.036L556.021 267.451L566.667 263.216Z" fill="#4DD67B"/>
<path d="M659.092 133.791L655.066 130.476L652.033 134.289L656.058 137.604L659.092 133.791Z" fill="#177DFF"/>
<path d="M903.142 210.875L900.353 207.235L891.78 214.264L894.569 217.904L903.142 210.875Z" fill="#4DD67B"/>
<path d="M231.212 92.3508L235.925 89.0425L230.565 81.3647L225.852 84.673L231.212 92.3508Z" fill="#177DFF"/>
<path d="M1196.36 239.793L1189.53 236.346L1188.13 242.475L1194.96 245.922L1196.36 239.793Z" fill="#177DFF"/>
<path d="M767.602 215.481L769.943 207.609L752.487 205.412L750.145 213.284L767.602 215.481Z" fill="#4DD67B"/>
<path d="M1234.77 213.07L1235.62 204.156L1212.84 197.249L1211.99 206.163L1234.77 213.07Z" fill="#D64D5B"/>
<path d="M421.71 304.675L423.298 299.575L410.632 299.117L409.044 304.217L421.71 304.675Z" fill="#177DFF"/>
<path d="M230.435 108.763L237.643 106.553L225.086 83.648L217.879 85.8586L230.435 108.763Z" fill="#D64D5B"/>
<path d="M748.347 198.645L757.007 197.434L757.006 181.63L748.346 182.842L748.347 198.645Z" fill="#4DD67B"/>
<path d="M441.487 236.876L443.769 233.743L433.835 225.118L431.553 228.252L441.487 236.876Z" fill="#177DFF"/>
<path d="M92.3893 285L86.1641 280.597L81.9955 288.475L88.2207 292.877L92.3893 285Z" fill="#F4DC73"/>
<path d="M263.951 260.74L258.503 257.99L255.585 269.457L261.033 272.207L263.951 260.74Z" fill="#D64D5B"/>
<path d="M525.46 159.731L525.76 154L518.564 153.246L518.264 158.978L525.46 159.731Z" fill="#D64D5B"/>
<path d="M807.887 17.1184L801.288 11.7788L795.292 19.1828L801.891 24.5224L807.887 17.1184Z" fill="#D64D5B"/>
<path d="M581.108 100.093L579.018 91.4526L562.251 93.5743L564.341 102.214L581.108 100.093Z" fill="#4DD67B"/>
<path d="M64.455 303.936L60.9715 296.399L48.3977 301.936L51.8812 309.472L64.455 303.936Z" fill="#D64D5B"/>
<path d="M469.424 188.255L465.229 186.012L461.342 192.583L465.537 194.826L469.424 188.255Z" fill="#F4DC73"/>
<path d="M274.444 79.5236L277.022 72.1758L257.263 64.3493L254.684 71.6971L274.444 79.5236Z" fill="#F4DC73"/>
<path d="M106.698 45.1846L96.6484 40.2896L93.2243 64.1034L103.274 68.9985L106.698 45.1846Z" fill="#177DFF"/>
<path d="M625.689 242.803L629.938 239.332L625.6 233.483L621.35 236.954L625.689 242.803Z" fill="#4DD67B"/>
<path d="M522.602 72.0002L521.689 66.2402H505.849L506.762 72.0002H522.602Z" fill="#F4DC73"/>
<path d="M894.634 317.899L885.65 315.953L880.792 332.153L889.776 334.1L894.634 317.899Z" fill="#F4DC73"/>
<path d="M611.051 281.981L607 274.272L596.206 279.836L600.256 287.545L611.051 281.981Z" fill="#F4DC73"/>
<path d="M1136.7 120.121L1134.26 114.385L1125.28 115.364L1127.71 121.101L1136.7 120.121Z" fill="#F4DC73"/>
<path d="M1374.46 175.696L1378.06 168.837L1358.14 157.677L1354.54 164.536L1374.46 175.696Z" fill="#177DFF"/>
<path d="M1384.95 279.276L1382.43 273.604L1374.33 275.104L1376.85 280.777L1384.95 279.276Z" fill="#4DD67B"/>
<path d="M1359.66 197.514L1358.01 189.084L1349.54 191.03L1351.18 199.46L1359.66 197.514Z" fill="#177DFF"/>
<path d="M582.002 235.911L578.321 227.317L565.181 228.747L568.861 237.341L582.002 235.911Z" fill="#F4DC73"/>
<path d="M683.134 61.6319L690.112 59.0518L680.55 41.3408L673.572 43.9209L683.134 61.6319Z" fill="#F4DC73"/>
<path d="M539.593 289.332L531.757 289.609L533.937 298.265L541.773 297.988L539.593 289.332Z" fill="#D64D5B"/>
<path d="M614.047 236.332L623.495 238.822L618.045 222.9L608.597 220.41L614.047 236.332Z" fill="#4DD67B"/>
<path d="M1376.73 243.599L1382.35 239.877L1376.58 230.427L1370.95 234.149L1376.73 243.599Z" fill="#F4DC73"/>
<path d="M149.533 68.2506L143.635 64.5332L137.027 74.4319L142.925 78.1492L149.533 68.2506Z" fill="#D64D5B"/>
<path d="M888.421 157.196L885.793 150.89L869.392 155.913L872.02 162.22L888.421 157.196Z" fill="#4DD67B"/>
<path d="M1367.99 178.225L1363.12 173.182L1357.27 178.627L1362.14 183.67L1367.99 178.225Z" fill="#177DFF"/>
<path d="M1032.66 127.186L1029.2 118.609L1008.66 121.623L1012.12 130.2L1032.66 127.186Z" fill="#4DD67B"/>
<path d="M318.872 290.993L327.774 287.478L319.765 263.387L310.863 266.902L318.872 290.993Z" fill="#4DD67B"/>
<path d="M1140.11 115.028L1135.32 107.539L1115.12 122.392L1119.91 129.882L1140.11 115.028Z" fill="#177DFF"/>
<path d="M596.89 320.228L597.53 311.433L573.769 307.486L573.129 316.281L596.89 320.228Z" fill="#4DD67B"/>
<path d="M29.0847 144.407L28.0674 137.548L20.1388 140.146L21.1562 147.005L29.0847 144.407Z" fill="#177DFF"/>
<path d="M359.964 59.3426L358.839 53.5747L348.201 54.3309L349.327 60.0988L359.964 59.3426Z" fill="#F4DC73"/>
<path d="M586.107 172.714L582.973 168.189L574.938 172.8L578.073 177.324L586.107 172.714Z" fill="#4DD67B"/>
<path d="M394.455 117.103L388.665 116.902L391.861 132.771L397.651 132.972L394.455 117.103Z" fill="#177DFF"/>
<path d="M57.9732 245.862L54.2668 239.55L41.3358 246.898L45.0421 253.211L57.9732 245.862Z" fill="#D64D5B"/>
<path d="M128.795 219.414L135.039 218.843L132.028 210.152L125.784 210.722L128.795 219.414Z" fill="#177DFF"/>
<path d="M687.847 317.022L683.924 312.735L678.138 318.042L682.062 322.329L687.847 317.022Z" fill="#4DD67B"/>
<path d="M923.063 213.311L918.763 210.122L912.695 219.124L916.995 222.313L923.063 213.311Z" fill="#F4DC73"/>
<path d="M779.135 225.575L774.344 223.141L768.892 231.624L773.683 234.058L779.135 225.575Z" fill="#D64D5B"/>
<path d="M186.939 212.758L184.279 204.74L174.262 204.562L176.923 212.58L186.939 212.758Z" fill="#4DD67B"/>
<path d="M1136.35 283.744L1144.91 282.837L1143.65 270.617L1135.08 271.524L1136.35 283.744Z" fill="#4DD67B"/>
<path d="M1086.78 317.746L1084.92 312.765L1076 314.23L1077.85 319.211L1086.78 317.746Z" fill="#4DD67B"/>
<path d="M1335.23 75.3769L1331.65 72.5234L1325.5 79.7756L1329.09 82.629L1335.23 75.3769Z" fill="#177DFF"/>
<path d="M1436.79 294.135L1440.21 288.497L1428.65 280.28L1425.23 285.917L1436.79 294.135Z" fill="#F4DC73"/>
<path d="M615.292 272.642L610.167 272.291L611.553 278.759L616.678 279.11L615.292 272.642Z" fill="#F4DC73"/>
<path d="M121.182 242.441L125.002 238.932L114.41 227.9L110.589 231.41L121.182 242.441Z" fill="#F4DC73"/>
<path d="M781.152 114.981L787.195 108.589L767.743 90.1334L761.7 96.5256L781.152 114.981Z" fill="#F4DC73"/>
<path d="M886.9 204.404L893.654 197.322L879.654 184.064L872.899 191.145L886.9 204.404Z" fill="#F4DC73"/>
<path d="M746.119 246.875L740.294 241.405L728.444 255.196L734.269 260.666L746.119 246.875Z" fill="#D64D5B"/>
<path d="M1351.47 179.088L1356.25 178.117L1352.81 167.411L1348.04 168.382L1351.47 179.088Z" fill="#D64D5B"/>
<path d="M472.689 133.012L468.06 130.096L461.759 139.566L466.389 142.482L472.689 133.012Z" fill="#177DFF"/>
<path d="M85.1393 37.2219L92.9746 36.5278L90.8947 16.334L83.0594 17.0281L85.1393 37.2219Z" fill="#177DFF"/>
<path d="M216.02 315.24L221.82 312.491L216.779 302.01L210.978 304.759L216.02 315.24Z" fill="#F4DC73"/>
<path d="M249.633 100.822L255.59 98.2866L248.845 82.3584L242.889 84.8939L249.633 100.822Z" fill="#4DD67B"/>
<path d="M1179.66 117.859L1170.63 114.194L1168.22 133.19L1177.26 136.855L1179.66 117.859Z" fill="#D64D5B"/>
<path d="M915.614 65.7243L922.282 57.9995L913.557 50.9263L906.889 58.6511L915.614 65.7243Z" fill="#177DFF"/>
<path d="M269.075 175.224L269.667 170.119L254.207 163.333L253.615 168.438L269.075 175.224Z" fill="#177DFF"/>
<path d="M155.776 242.722L159.697 239.923L148.35 227.929L144.428 230.728L155.776 242.722Z" fill="#4DD67B"/>
<path d="M201.703 88.6074L200.069 83.4937L185.481 80.0329L187.115 85.1466L201.703 88.6074Z" fill="#F4DC73"/>
<path d="M107.69 299.966L101.232 296.916L95.5663 308.69L102.023 311.741L107.69 299.966Z" fill="#F4DC73"/>
<path d="M1134.53 147.637L1132.39 142.964L1126.51 145.392L1128.65 150.065L1134.53 147.637Z" fill="#F4DC73"/>
<path d="M659.471 268.619L664.75 267.303L658.581 252.343L653.302 253.659L659.471 268.619Z" fill="#177DFF"/>
<path d="M98.7643 92.0166L92.8768 89.2031L90.8274 98.0855L96.7148 100.899L98.7643 92.0166Z" fill="#4DD67B"/>
<path d="M1394.34 235.713L1402.9 231.609L1394.4 212.842L1385.84 216.946L1394.34 235.713Z" fill="#D64D5B"/>
<path d="M578.862 101.366L575.809 95.395L559.449 105.848L562.501 111.82L578.862 101.366Z" fill="#D64D5B"/>
<path d="M903.562 175.133L912.161 174.378L911.005 157.841L902.406 158.596L903.562 175.133Z" fill="#F4DC73"/>
<path d="M1184.92 279.65L1179.29 276.591L1172.32 289.375L1177.96 292.434L1184.92 279.65Z" fill="#D64D5B"/>
<path d="M1026.46 44.8923L1018.45 38.3545L1011.39 47.7285L1019.4 54.2662L1026.46 44.8923Z" fill="#4DD67B"/>
<path d="M1410.29 106.724L1417.79 105.622L1413.04 94.925L1405.53 96.0275L1410.29 106.724Z" fill="#F4DC73"/>
<path d="M940.145 221.079L934.921 214.738L915.193 232.073L920.417 238.414L940.145 221.079Z" fill="#4DD67B"/>
</g>
<defs>
<clipPath id="clip0_211_1095">
<rect width="1440" height="326" fill="white"/>
</clipPath>
</defs>
</svg>
