<svg width="80" height="80" viewBox="0 0 80 80" fill="none" xmlns="http://www.w3.org/2000/svg">
<path fill-rule="evenodd" clip-rule="evenodd" d="M29.5785 58.0033C32.5168 60.747 41.186 56.2323 48.944 47.9233C56.6984 39.614 60.6067 30.6562 57.6684 27.9124C54.73 25.1686 46.0574 29.6832 38.3027 37.9923C30.5449 46.3017 26.6401 55.2597 29.5785 58.0033Z" stroke="#F4DC73" stroke-width="5" stroke-linecap="round" stroke-linejoin="round"/>
<path d="M10.6966 22.9165H10.7745M19.7011 57.1075H19.7789" stroke="#F4DC73" stroke-width="5" stroke-linecap="round" stroke-linejoin="round"/>
<path d="M58.1767 28.5679L69.888 65.3465C70.433 67.0652 68.8697 68.7128 67.1213 68.2555L30.6771 58.6652" stroke="#F4DC73" stroke-width="5" stroke-linecap="round" stroke-linejoin="round"/>
<path d="M51.2109 64.0635C53.6239 62.3252 56.1343 60.0741 58.5473 57.5025C61.0866 54.7651 63.2109 51.9661 64.8196 49.3618" stroke="#F4DC73" stroke-width="5" stroke-linecap="round" stroke-linejoin="round"/>
<path d="M21.4908 46.9369C21.4908 46.9369 15.3189 46.4602 10 52.2072" stroke="#F4DC73" stroke-width="5" stroke-linecap="round" stroke-linejoin="round"/>
<path fill-rule="evenodd" clip-rule="evenodd" d="M31.9077 19.901C31.9077 22.0837 30.1369 23.8545 27.9542 23.8545C25.7715 23.8545 24.0039 22.0837 24.0039 19.901C24.0039 17.7183 25.7715 15.9507 27.9542 15.9507C30.1369 15.9507 31.9077 17.7183 31.9077 19.901Z" stroke="#F4DC73" stroke-width="5" stroke-linecap="round" stroke-linejoin="round"/>
<path d="M42.438 42.2692C42.438 42.2692 31.6186 31.1059 15.0456 35.8248" stroke="#F4DC73" stroke-width="5" stroke-linecap="round" stroke-linejoin="round"/>
<path d="M46.1693 11.6665C46.1693 11.6665 39.9037 20.2449 46.844 30.5584" stroke="#F4DC73" stroke-width="5" stroke-linecap="round" stroke-linejoin="round"/>
</svg>
